<svg id="visual" viewBox="0 0 1920 1080" width="1920" height="1080" xmlns="http://www.w3.org/2000/svg" xmlns:xlink="http://www.w3.org/1999/xlink" version="1.1"><rect x="0" y="0" width="1920" height="1080" fill="#ffffff"></rect><defs><linearGradient id="grad1_0" x1="43.8%" y1="0%" x2="100%" y2="100%"><stop offset="14.444444444444446%" stop-color="#fcaf3c" stop-opacity="1"></stop><stop offset="85.55555555555554%" stop-color="#fcaf3c" stop-opacity="1"></stop></linearGradient></defs><defs><linearGradient id="grad1_1" x1="43.8%" y1="0%" x2="100%" y2="100%"><stop offset="14.444444444444446%" stop-color="#fcaf3c" stop-opacity="1"></stop><stop offset="85.55555555555554%" stop-color="#ffc980" stop-opacity="1"></stop></linearGradient></defs><defs><linearGradient id="grad1_2" x1="43.8%" y1="0%" x2="100%" y2="100%"><stop offset="14.444444444444446%" stop-color="#ffe4bf" stop-opacity="1"></stop><stop offset="85.55555555555554%" stop-color="#ffc980" stop-opacity="1"></stop></linearGradient></defs><defs><linearGradient id="grad1_3" x1="43.8%" y1="0%" x2="100%" y2="100%"><stop offset="14.444444444444446%" stop-color="#ffe4bf" stop-opacity="1"></stop><stop offset="85.55555555555554%" stop-color="#ffffff" stop-opacity="1"></stop></linearGradient></defs><defs><linearGradient id="grad2_0" x1="0%" y1="0%" x2="56.3%" y2="100%"><stop offset="14.444444444444446%" stop-color="#fcaf3c" stop-opacity="1"></stop><stop offset="85.55555555555554%" stop-color="#fcaf3c" stop-opacity="1"></stop></linearGradient></defs><defs><linearGradient id="grad2_1" x1="0%" y1="0%" x2="56.3%" y2="100%"><stop offset="14.444444444444446%" stop-color="#ffc980" stop-opacity="1"></stop><stop offset="85.55555555555554%" stop-color="#fcaf3c" stop-opacity="1"></stop></linearGradient></defs><defs><linearGradient id="grad2_2" x1="0%" y1="0%" x2="56.3%" y2="100%"><stop offset="14.444444444444446%" stop-color="#ffc980" stop-opacity="1"></stop><stop offset="85.55555555555554%" stop-color="#ffe4bf" stop-opacity="1"></stop></linearGradient></defs><defs><linearGradient id="grad2_3" x1="0%" y1="0%" x2="56.3%" y2="100%"><stop offset="14.444444444444446%" stop-color="#ffffff" stop-opacity="1"></stop><stop offset="85.55555555555554%" stop-color="#ffe4bf" stop-opacity="1"></stop></linearGradient></defs><g transform="translate(1920, 0)"><path d="M0 756C-112.5 758.9 -224.9 761.8 -289.3 698.5C-353.7 635.1 -370 505.6 -430.6 430.6C-491.3 355.6 -596.2 335.2 -657.8 272.5C-719.4 209.8 -737.7 104.9 -756 0L0 0Z" fill="#fff1df"></path><path d="M0 567C-84.3 569.2 -168.7 571.3 -217 523.8C-265.3 476.4 -277.5 379.2 -323 323C-368.4 266.7 -447.1 251.4 -493.4 204.4C-539.6 157.3 -553.3 78.7 -567 0L0 0Z" fill="#ffd69f"></path><path d="M0 378C-56.2 379.4 -112.5 380.9 -144.7 349.2C-176.8 317.6 -185 252.8 -215.3 215.3C-245.6 177.8 -298.1 167.6 -328.9 136.2C-359.7 104.9 -368.9 52.4 -378 0L0 0Z" fill="#ffbc5f"></path><path d="M0 189C-28.1 189.7 -56.2 190.4 -72.3 174.6C-88.4 158.8 -92.5 126.4 -107.7 107.7C-122.8 88.9 -149 83.8 -164.5 68.1C-179.9 52.4 -184.4 26.2 -189 0L0 0Z" fill="#fcaf3c"></path></g><g transform="translate(0, 1080)"><path d="M0 -756C111.4 -754.3 222.7 -752.6 285.9 -690.1C349 -627.6 363.9 -504.3 435.6 -435.6C507.2 -366.9 635.6 -352.8 698.5 -289.3C761.3 -225.8 758.7 -112.9 756 0L0 0Z" fill="#fff1df"></path><path d="M0 -567C83.5 -565.7 167 -564.5 214.4 -517.6C261.8 -470.7 272.9 -378.2 326.7 -326.7C380.4 -275.2 476.7 -264.6 523.8 -217C571 -169.4 569 -84.7 567 0L0 0Z" fill="#ffd69f"></path><path d="M0 -378C55.7 -377.2 111.4 -376.3 142.9 -345.1C174.5 -313.8 182 -252.1 217.8 -217.8C253.6 -183.4 317.8 -176.4 349.2 -144.7C380.7 -112.9 379.3 -56.5 378 0L0 0Z" fill="#ffbc5f"></path><path d="M0 -189C27.8 -188.6 55.7 -188.2 71.5 -172.5C87.3 -156.9 91 -126.1 108.9 -108.9C126.8 -91.7 158.9 -88.2 174.6 -72.3C190.3 -56.5 189.7 -28.2 189 0L0 0Z" fill="#fcaf3c"></path></g></svg>