<svg id="visual" viewBox="0 0 1920 1080" width="1920" height="1080" xmlns="http://www.w3.org/2000/svg" xmlns:xlink="http://www.w3.org/1999/xlink" version="1.1"><rect x="0" y="0" width="1920" height="1080" fill="#001220"></rect><defs><linearGradient id="grad1_0" x1="43.8%" y1="0%" x2="100%" y2="100%"><stop offset="14.444444444444446%" stop-color="#001220" stop-opacity="1"></stop><stop offset="85.55555555555554%" stop-color="#001220" stop-opacity="1"></stop></linearGradient></defs><defs><linearGradient id="grad2_0" x1="0%" y1="0%" x2="56.3%" y2="100%"><stop offset="14.444444444444446%" stop-color="#001220" stop-opacity="1"></stop><stop offset="85.55555555555554%" stop-color="#001220" stop-opacity="1"></stop></linearGradient></defs><g transform="translate(1920, 0)"><path d="M0 972C-101.2 887.4 -202.3 802.8 -314.2 758.5C-426 714.2 -548.6 710.2 -654.1 654.1C-759.5 597.9 -847.9 489.7 -898 372C-948.1 254.3 -960.1 127.1 -972 0L0 0Z" fill="#FBAE3C"></path></g><g transform="translate(0, 1080)"><path d="M0 -972C124.2 -932.8 248.4 -893.6 343.6 -829.6C438.9 -765.7 505.1 -677.1 603.2 -603.2C701.3 -529.2 831.2 -470 898 -372C964.8 -273.9 968.4 -136.9 972 0L0 0Z" fill="#FBAE3C"></path></g></svg>